<svg width="37" height="37" viewBox="0 0 37 37" fill="none" xmlns="http://www.w3.org/2000/svg">
<g clip-path="url(#clip0_206_124)">
<path fill-rule="evenodd" clip-rule="evenodd" d="M20.1341 24.7592C19.7005 25.1922 19.1128 25.4355 18.5 25.4355C17.8872 25.4355 17.2994 25.1922 16.8658 24.7592L8.14305 16.0395C7.70944 15.6057 7.46592 15.0174 7.46606 14.404C7.46621 13.7906 7.71001 13.2025 8.14382 12.7688C8.57764 12.3352 9.16594 12.0917 9.77931 12.0919C10.3927 12.092 10.9809 12.3358 11.4145 12.7696L18.5 19.8551L25.5855 12.7696C26.0214 12.3482 26.6054 12.1148 27.2118 12.1198C27.8181 12.1248 28.3982 12.3677 28.8272 12.7962C29.2562 13.2248 29.4996 13.8047 29.5052 14.411C29.5107 15.0174 29.2779 15.6016 28.8569 16.0379L20.1357 24.7607L20.1341 24.7592Z" fill="white"/>
</g>
<defs>
<clipPath id="clip0_206_124">
<rect width="37" height="37" fill="white"/>
</clipPath>
</defs>
</svg>
