<svg width="37" height="37" viewBox="0 0 37 37" fill="none" xmlns="http://www.w3.org/2000/svg">
<g clip-path="url(#clip0_206_111)">
<path fill-rule="evenodd" clip-rule="evenodd" d="M16.8658 12.2408C17.2994 11.8078 17.8872 11.5645 18.5 11.5645C19.1128 11.5645 19.7005 11.8078 20.1341 12.2408L28.8569 20.9605C29.2905 21.3943 29.534 21.9826 29.5339 22.596C29.5337 23.2094 29.2899 23.7975 28.8561 24.2312C28.4223 24.6648 27.834 24.9083 27.2206 24.9081C26.6073 24.908 26.0191 24.6642 25.5855 24.2304L18.5 17.1449L11.4145 24.2304C10.9785 24.6518 10.3945 24.8852 9.78816 24.8802C9.18182 24.8752 8.6017 24.6323 8.17274 24.2038C7.74378 23.7752 7.5003 23.1953 7.49475 22.589C7.4892 21.9826 7.72201 21.3984 8.14305 20.962L16.8643 12.2393L16.8658 12.2408Z" fill="white"/>
</g>
<defs>
<clipPath id="clip0_206_111">
<rect width="37" height="37" fill="white" transform="translate(37 37) rotate(-180)"/>
</clipPath>
</defs>
</svg>
